<?xml version="1.0" standalone="no"?><!DOCTYPE svg PUBLIC "-//W3C//DTD SVG 1.1//EN" "http://www.w3.org/Graphics/SVG/1.1/DTD/svg11.dtd"><svg t="1672800232511" class="icon" viewBox="0 0 1024 1024" version="1.1" xmlns="http://www.w3.org/2000/svg" p-id="2182" xmlns:xlink="http://www.w3.org/1999/xlink" width="200" height="200"><path d="M226.908984 374.225898c-5.352724 37.236338 1.62909 52.363601 29.556343 63.301775a74.239949 74.239949 0 0 0-29.556343-63.301775z" fill="#13227a" p-id="2183"></path><path d="M511.999699 0.000698a442.181517 442.181517 0 0 0-116.363558 869.003044A289.745257 289.745257 0 0 1 511.999699 1024a289.745257 289.745257 0 0 1 116.363557-154.996258A442.181517 442.181517 0 0 0 511.999699 0.000698z m-40.029064 235.054385c23.272711-2.327271 51.432692 27.229072 62.138139 69.818135 6.283632 24.901801 14.429081 54.225418-19.083623 68.654498-44.218152 19.083623-89.134485 36.538157-137.07627 56.087235a121.949008 121.949008 0 0 0-55.156326-132.887182l142.661721-60.50905a19.083623 19.083623 0 0 1 6.516359-1.163636z m69.818134 182.923512a23.272711 23.272711 0 0 1 21.178167 25.367255c-1.163636 14.661808-15.592717 7.679995-23.272711 8.610904a313.017968 313.017968 0 0 1-33.04725 0h-36.30543c-11.869083 0-23.272711 6.283632-24.436347-7.912722a23.272711 23.272711 0 0 1 20.94544-26.065437 515.956012 515.956012 0 0 1 75.86904 0.930908z m-195.95623-216.90167a35.607248 35.607248 0 0 1 18.152715 43.054516c-10.47272 33.512704-48.40724 23.272711-72.145405 44.683606A72.843587 72.843587 0 0 0 263.679868 223.418728c30.021798-8.145449 52.130874-33.745432 82.152671-22.341803zM249.01806 241.80417c17.919988-3.025452 20.712713 15.592717 23.272711 32.116341-5.818178 23.272711-28.625435 23.272711-46.545423 26.298164s-23.272711-10.705447-23.272711-25.599982c1.861817-30.487252 28.392708-29.789071 46.545423-32.814523z m3.025452 213.64349a64.930865 64.930865 0 0 1-46.545423-64.930864c4.189088-56.087234 60.043595-46.545423 93.090846-65.629047 20.247259-13.032718 34.210886 6.283632 44.218152 23.272712a80.058127 80.058127 0 0 1 15.127262 46.545423 61.672685 61.672685 0 0 1 0 13.032718c-6.050905 14.429081-83.549034 49.803602-105.890837 47.709058zM385.163421 768.000175c-3.025452 8.610903-5.352724 18.152715-17.221806 14.894535s-11.636356-15.825444-9.076358-25.134528c10.705447-42.821789 23.272711-85.410851 34.210886-127.999913 10.705447-38.399974 25.367255-75.869039 32.581796-114.734467s25.367255-46.545423 62.836321-36.538157z m147.083536-158.254438a1112.202878 1112.202878 0 0 0-10.938174 125.207187c0 10.47272-2.792725 20.479986-16.523625 19.549078s-13.032718-9.541812-13.7309-18.850896c-4.421815-49.570875-9.076357-98.909023-13.032718-148.247172-2.792725-33.512704 15.592717-60.50905 28.858162-97.978115 13.032718 43.51997 33.745432 76.334493 25.367255 119.156282z m112.174469 172.683519c-13.963627 4.421815-16.290898-9.076357-19.31635-17.454534-32.116342-89.599939-63.301775-179.432605-96.116298-268.56709-9.541812-26.530891 8.145449-20.479986 25.599982-21.410894 10.239993-1.62909 20.247259 0 25.134529 18.152715 23.272711 87.272668 49.105421 174.312608 73.774495 261.585276 3.25818 9.774539 5.119997 22.109076-9.076358 26.530891z m144.290811-508.276017c-74.472676 33.04725-150.108989 63.069048-228.072572 95.418116a162.90898 162.90898 0 0 0-65.396319-157.788983l225.745301-93.090846h3.25818c23.272711-4.189088 52.596328 19.549078 68.654498 57.716325 18.385442 41.192699 18.385442 86.341759-4.189088 96.581752z" fill="#13227a" p-id="2184"></path></svg>